<?xml version="1.0" encoding="UTF-8"?><svg id="layer1" xmlns="http://www.w3.org/2000/svg" width="126.6" height="39" viewBox="0 0 126.6 39"><path d="m19.3,6l-5.9,15.1v8.9h-7v-8.9L0,6h7.2l4.9,11.6,4.4-11.6h2.8Z" style="fill:#f2f2f2;"/><path d="m20.7,30V12.3c2,0,4.1-.2,6.4-.5v18.2h-6.4Zm3.3-24.6c2,0,3,.8,3,2.3s-1,2.3-3,2.3-3-.8-3-2.3,1-2.3,3-2.3Z" style="fill:#f2f2f2;"/><path d="m68,6l-6.5,24h-4.5l-3.3-13.1-3.4,13.1h-4.5l-6.2-24h7l3.6,14.6,3.6-14.6h4.1l3.6,14.6,3.8-14.6h2.7Z" style="fill:#f2f2f2;"/><path d="m87.5,29.4c-1.6.6-3.1.9-4.6.9-2.2,0-3.6-.7-4.1-2.1-1.1,1.4-2.6,2.1-4.6,2.1-3.7,0-5.6-1.7-5.6-5.2s1.7-4.5,5.1-5.6c3.1-1,4.7-2.2,4.7-3.6s-.9-2.7-2.7-2.7-3.1.9-3.1,2.6.2,1.3.5,2.2l-3.2-.6c0-.6-.1-1.1-.1-1.5,0-2.8,2.6-4.2,7.7-4.2s7.3,1.3,7.3,3.9v10.8c0,1.1.4,1.7,1.1,1.7s.6-.1,1-.4l.6,1.6Zm-9.1-10c-.4.5-.9.8-1.4,1.1-1.3.8-2,2.1-2,3.9s.5,3.5,1.4,3.5c1.3,0,2-1.2,2-3.5v-5.1Z" style="fill:#f2f2f2;"/><path d="m105.4,30h-6.4v-13c0-1.3-.4-2-1.1-2s-1.4.5-2,1.6-.8,2.3-.8,3.7v9.7h-6.4V12.3c2.2,0,4.3-.1,6.4-.4v3.3c1.6-2.2,3.5-3.3,5.8-3.3s4.5,1.5,4.5,4.5v13.6Z" style="fill:#f2f2f2;"/><path d="m120.5,12.5c3,1.3,4.5,3.1,4.5,5.6s-.8,3-2.2,4.1-3.3,1.7-5.4,1.7-1.9-.1-3.3-.3c-.8.5-1.2.9-1.2,1.4s.5,1,1.5,1,.8,0,1.6,0c2-.1,3.4-.2,4.3-.2,4.3,0,6.4,1.6,6.4,4.9s-3.5,5.9-10.6,5.9-7.9-1.1-7.9-3.3,1.1-2.1,3.2-2.6c-2.3-.6-3.4-1.6-3.4-3s1.4-3.2,4.1-4.6c-2.4-1-3.6-2.6-3.6-4.9s.7-3.2,2.2-4.4,3.2-1.8,5.4-1.8,1.7,0,2.9.2c0-.4,0-.7,0-1,0-2.3,1.2-3.5,3.6-3.5s2.9.8,2.9,2.4-.6,1.9-1.7,1.9-.8-.1-1.4-.4c-.3-.2-.6-.3-.7-.3-.6,0-.8.4-.8,1.2Zm-4.1,18.7c-3,0-4.5.6-4.5,1.7s1.4,1.7,4.3,1.7,5-.6,5-1.9-1.6-1.5-4.9-1.5Zm.2-17.6c-1.2,0-1.8,1.5-1.8,4.5s.6,4.1,1.9,4.1,1.7-1.2,1.7-3.6-.6-4.9-1.8-4.9Z" style="fill:#f2f2f2;"/></svg>